<svg width="128" height="128" viewBox="0 0 128 128" fill="none" xmlns="http://www.w3.org/2000/svg" role="img" aria-labelledby="title desc">
  <title id="title">StageOne logo</title>
  <desc id="desc">A pink gradient app icon with a stage line, play symbol, and sound bars.</desc>
  <defs>
    <linearGradient id="g" x1="14" y1="12" x2="118" y2="118" gradientUnits="userSpaceOnUse">
      <stop offset="0" stop-color="#FF8FD8"/>
      <stop offset="0.48" stop-color="#FF4FB8"/>
      <stop offset="1" stop-color="#7C3BFF"/>
    </linearGradient>
    <linearGradient id="shine" x1="31" y1="20" x2="93" y2="101" gradientUnits="userSpaceOnUse">
      <stop offset="0" stop-color="white" stop-opacity="0.95"/>
      <stop offset="1" stop-color="white" stop-opacity="0.58"/>
    </linearGradient>
    <filter id="shadow" x="-20" y="-20" width="168" height="168" filterUnits="userSpaceOnUse" color-interpolation-filters="sRGB">
      <feDropShadow dx="0" dy="16" stdDeviation="16" flood-color="#FF4FB8" flood-opacity="0.25"/>
    </filter>
  </defs>
  <rect x="14" y="14" width="100" height="100" rx="31" fill="url(#g)" filter="url(#shadow)"/>
  <path d="M34 82C43.5 73 53.5 68.5 64 68.5C74.5 68.5 84.5 73 94 82" stroke="url(#shine)" stroke-width="8" stroke-linecap="round"/>
  <path d="M55 42.8C55 39.7 58.35 37.78 61.02 39.37L83.37 52.57C86.01 54.13 86.01 57.95 83.37 59.51L61.02 72.71C58.35 74.3 55 72.38 55 69.28V42.8Z" fill="white" fill-opacity="0.96"/>
  <rect x="34" y="48" width="8" height="20" rx="4" fill="white" fill-opacity="0.62"/>
  <rect x="46" y="38" width="8" height="40" rx="4" fill="white" fill-opacity="0.76"/>
  <rect x="92" y="45" width="8" height="28" rx="4" fill="white" fill-opacity="0.66"/>
</svg>
